<?xml version="1.0" encoding="utf-8"?>
<!-- Generator: $$$/GeneralStr/196=Adobe Illustrator 27.6.0, SVG Export Plug-In . SVG Version: 6.00 Build 0)  -->
<svg version="1.1" id="图层_1" xmlns="http://www.w3.org/2000/svg" xmlns:xlink="http://www.w3.org/1999/xlink" x="0px" y="0px"
	 viewBox="0 0 88.7 88.7" style="enable-background:new 0 0 88.7 88.7;" xml:space="preserve">
<style type="text/css">
	.st0{fill-rule:evenodd;clip-rule:evenodd;fill:#FFFFFF;}
	.st1{fill:#0AE64D;}
	.st2{fill-rule:evenodd;clip-rule:evenodd;fill:#0AE64D;}
</style>
<g>
	<circle class="st0" cx="44.3" cy="44.6" r="38.8"/>
	<path class="st1" d="M37.3,61.6l-17-17L26,39l11.3,11.3l22.6-22.6l5.7,5.7L37.3,61.6z"/>
	<path class="st2" d="M0.3,44.3c0-24.3,19.7-44,44-44s44,19.7,44,44s-19.7,44-44,44S0.3,68.6,0.3,44.3 M44.3,80.3
		c-19.9,0-36-16.1-36-36s16.1-36,36-36s36,16.1,36,36S64.2,80.3,44.3,80.3L44.3,80.3"/>
</g>
</svg>
