<?xml version="1.0" encoding="utf-8"?>
<!-- Generator: $$$/GeneralStr/196=Adobe Illustrator 27.6.0, SVG Export Plug-In . SVG Version: 6.00 Build 0)  -->
<svg version="1.2" baseProfile="tiny" id="图层_1"
	 xmlns="http://www.w3.org/2000/svg" xmlns:xlink="http://www.w3.org/1999/xlink" x="0px" y="0px" viewBox="0 0 1024 1024"
	 overflow="visible" xml:space="preserve">
<path fill="#FBB03B" d="M783.07,256c42.82,0,75.31,9.84,93.94,28.47c17.1,17.09,20.69,39.33,20.69,54.98
	c0,15.39-3.52,37.22-20.31,53.76c-18.59,18.32-51.2,28-94.32,28c-8.43,0-23.38-8.82-37.78-28.52
	c-15.97-21.85-26.28-50.35-26.28-72.62C719.01,284.74,747.75,256,783.07,256 M783.07,181c-76.8,0-139.06,62.26-139.06,139.06
	S706.27,496.2,783.07,496.2c139.06,0,189.63-79.96,189.63-156.76S922.13,181,783.07,181L783.07,181z"/>
<path fill="#FBB03B" d="M783.92,446.05c0,186.26-141.5,223.34-316.05,223.34S151.83,632.3,151.83,446.05
	c0-174.55,141.5-167.72,316.05-167.72S783.92,271.5,783.92,446.05z"/>
<rect x="151.83" y="181" fill="#FBB03B" width="632.09" height="264.2"/>
<polygon fill="#FBB03B" points="733.35,843 202.39,843 108,728.38 836.17,728.38 "/>
</svg>
