<?xml version="1.0" encoding="utf-8"?>
<!-- Generator: $$$/GeneralStr/196=Adobe Illustrator 27.6.0, SVG Export Plug-In . SVG Version: 6.00 Build 0)  -->
<svg version="1.1" id="图层_1" xmlns="http://www.w3.org/2000/svg" xmlns:xlink="http://www.w3.org/1999/xlink" x="0px" y="0px"
	 viewBox="0 0 96 96" style="enable-background:new 0 0 96 96;" xml:space="preserve">
<style type="text/css">
	.st0{fill:#0CE80D;}
</style>
<path class="st0" d="M40.2,58.5l-12-13.2c-1-1.1-2.3-1.7-3.9-1.7c-1.6,0-2.9,0.6-3.9,1.7c-1,1.1-1.5,2.6-1.5,4.3
	c0,1.7,0.5,3.2,1.5,4.3l15.9,17.5c1.1,1.2,2.4,1.8,3.9,1.8c1.5,0,2.8-0.6,3.9-1.8l31.5-34.7c1-1.1,1.5-2.6,1.5-4.3
	c0-1.7-0.5-3.2-1.5-4.3c-1-1.1-2.3-1.7-3.9-1.7s-2.9,0.6-3.9,1.7L40.2,58.5z M48,96c-6.6,0-12.9-1.3-18.7-3.8S18.4,86.3,14,82
	c-4.3-4.3-7.7-9.4-10.3-15.2S0,54.6,0,48c0-6.6,1.3-12.9,3.8-18.7S9.7,18.4,14,14s9.4-7.7,15.2-10.3S41.4,0,48,0
	c6.6,0,12.9,1.3,18.7,3.8C72.6,6.3,77.6,9.7,82,14c4.3,4.3,7.7,9.4,10.3,15.2C94.8,35.1,96,41.4,96,48s-1.3,12.9-3.8,18.7
	C89.7,72.6,86.3,77.6,82,82c-4.3,4.3-9.4,7.7-15.2,10.3C60.9,94.7,54.6,96,48,96"/>
</svg>
