<?xml version="1.0" encoding="utf-8"?>
<!-- Generator: $$$/GeneralStr/196=Adobe Illustrator 27.6.0, SVG Export Plug-In . SVG Version: 6.00 Build 0)  -->
<svg version="1.1" id="图层_1" xmlns="http://www.w3.org/2000/svg" xmlns:xlink="http://www.w3.org/1999/xlink" x="0px" y="0px"
	 viewBox="0 0 96 96" style="enable-background:new 0 0 96 96;" xml:space="preserve">
<style type="text/css">
	.st0{fill:#F46262;}
</style>
<path class="st0" d="M48,0C21.5,0,0,21.5,0,48s21.5,48,48,48s48-21.5,48-48S74.5,0,48,0 M70.2,61.8c2.3,2.3,2.3,6.1,0,8.5
	c-2.3,2.3-6.1,2.3-8.5,0L48,56.5L34.2,70.2c-2.3,2.3-6.1,2.4-8.5,0c0,0,0,0,0,0c-2.3-2.3-2.3-6.1,0-8.5L39.5,48L25.8,34.2
	c-2.3-2.3-2.3-6.1,0-8.5c2.3-2.3,6.1-2.3,8.5,0L48,39.5l13.8-13.8c2.3-2.3,6.1-2.3,8.5,0c2.3,2.3,2.3,6.1,0,8.5L56.5,48L70.2,61.8z"
	/>
</svg>
